The Godfather Trilogy
 
http://www.imdb.com/title/tt0068646/
 
http://www.imdb.com/title/tt0071562/
 
http://www.imdb.com/title/tt0099674/


Source  :

The.Godfather.1972.BluRay.1080p.DTS.x264.dxva-EuReKA

The.Godfather.II.1974.BluRay.1080p.DTS.x264.dxva-EuReKA

The.Godfather.III.1990.BluRay.1080p.DTS.x264.dxva-EuReKA




Info : 

ID                               : 1
Format                           : AVC
Format/Info                      : Advanced Video Codec
Format profile                   : Baseline@L2.1
Format settings, CABAC           : No
Format settings, ReFrames        : 3 frames
Codec ID                         : avc1
Codec ID/Info                    : Advanced Video Coding
Duration                         : 2h 57mn
Bit rate mode                    : Variable
Bit rate                         : 395 Kbps
Width                            : 480 pixels
Height                           : 272 pixels
Display aspect ratio             : 16:9
Frame rate mode                  : Variable
Frame rate                       : 23.976 fps
Minimum frame rate               : 23.810 fps
Maximum frame rate               : 24.390 fps
Color space                      : YUV
Chroma subsampling               : 4:2:0
Bit depth                        : 8 bits
Scan type                        : Progressive
Bits/(Pixel*Frame)               : 0.126
Stream size                      : 500 MiB (75%)
Writing library                  : x264 core 79

ID                               : 2
Format                           : AAC
Format/Info                      : Advanced Audio Codec
Format version                   : Version 4
Format profile                   : LC
Format settings, SBR             : No
Codec ID                         : 40
Duration                         : 2h 57mn
Bit rate mode                    : Variable
Bit rate                         : 128 Kbps
Maximum bit rate                 : 211 Kbps
Channel(s)                       : 2 channels
Channel positions                : Front: L R
Sampling rate                    : 48.0 KHz
Stream size                      : 162 MiB (24%)
Language                         : English

Screens:
 
http://img571.imageshack.us/img571/9717/thegodfatheriiiooom4vth.jpg
 
http://img94.imageshack.us/img94/323/thegodfatheriiooom4vthu.jpg
 
http://img812.imageshack.us/img812/3609/thegodfatherooom4vthumb.jpg






PLEASE DONT COMPLAIN ABOUT MISSING SUBTITLES.. I DONT DO SUBS.. =)

PLEASE LET THE TORRENT SEED AND SPREAD THE WORD ABOUT IT! 

Let me know what I can do to be your trusted source of Handheld videos.
 
http://thepiratebay.org/user/on.off.on/ -OOO